<?xml version="1.0" standalone="no"?>
<!DOCTYPE svg PUBLIC "-//W3C//DTD SVG 20010904//EN"
 "http://www.w3.org/TR/2001/REC-SVG-20010904/DTD/svg10.dtd">
<svg version="1.0" xmlns="http://www.w3.org/2000/svg"
 width="271.000000pt" height="265.000000pt" viewBox="0 0 271.000000 265.000000"
 preserveAspectRatio="xMidYMid meet">

<g transform="translate(0.000000,265.000000) scale(0.100000,-0.100000)"
fill="#000000" stroke="none">
<path d="M1350 2054 c-42 -65 -62 -86 -82 -91 -31 -6 -34 -13 -16 -31 9 -9 3
-22 -30 -55 -24 -24 -44 -55 -46 -69 -1 -14 -17 -43 -34 -64 -18 -21 -32 -46
-32 -56 0 -9 -6 -21 -14 -25 -7 -4 -21 -25 -31 -46 -10 -21 -28 -45 -40 -53
-13 -8 -29 -29 -36 -47 -7 -18 -24 -41 -37 -51 -13 -10 -32 -38 -42 -60 -19
-45 -53 -72 -215 -168 -105 -63 -125 -92 -125 -179 0 -72 27 -115 95 -149 48
-24 57 -25 235 -24 146 1 195 5 233 18 30 11 60 15 82 10 26 -5 40 -1 61 15
19 15 41 21 75 21 39 0 51 5 67 25 15 18 29 25 56 25 25 0 38 6 46 20 6 12 21
20 35 20 27 0 54 32 105 123 18 31 41 62 51 68 22 11 77 14 157 9 43 -3 56 1
75 18 13 12 26 20 29 16 10 -9 108 37 108 52 0 19 19 27 34 15 17 -14 84 31
97 66 5 14 15 23 22 20 19 -7 51 118 41 158 -11 46 -33 87 -67 123 -35 36 -57
41 -57 13 0 -21 -129 -147 -188 -185 -21 -13 -73 -36 -115 -51 -56 -20 -93
-42 -139 -82 -61 -53 -155 -110 -165 -100 -7 8 16 48 46 81 14 15 72 50 128
76 203 96 307 179 353 282 38 87 36 113 -14 214 -25 50 -64 111 -87 137 l-41
47 -91 0 c-51 0 -97 -4 -103 -8 -18 -12 -34 -49 -34 -79 0 -16 -7 -39 -16 -52
l-16 -23 -22 38 c-12 21 -36 48 -54 60 -32 22 -148 64 -174 64 -7 0 -38 -39
-68 -86z m303 -149 c7 -17 70 -50 115 -60 l32 -7 -17 -30 c-27 -45 -76 -84
-156 -124 -113 -56 -170 -104 -210 -176 -60 -106 -134 -171 -272 -238 -170
-83 -392 -147 -417 -122 -41 41 158 173 280 186 35 3 83 15 107 25 79 35 323
290 464 484 30 42 59 77 62 77 4 0 9 -7 12 -15z"/>
</g>
</svg>
